<svg xmlns="http://www.w3.org/2000/svg" xmlns:xlink="http://www.w3.org/1999/xlink" width="1080" height="480" viewBox="0 0 1080 480">
    <defs>
        <path id="mdrg7wikma" d="M0 306.806L376.582 306.806 376.582 0 0 0z"/>
    </defs>
    <g fill="none" fill-rule="evenodd">
        <g>
            <path fill="#FCD057" d="M0 0H1080V480H0z"/>
            <g>
                <path fill="#E3E5E5" d="M89.775 207.277L297.052 207.277 297.052 0 89.775 0z" transform="translate(567 111)"/>
                <path fill="#ACADAD" d="M95.383 201.671L291.444 201.671 291.444 5.61 95.383 5.61z" transform="translate(567 111)"/>
                <path fill="#929393" d="M282.311 192.078L115.994 192.078 110.527 187.141 110.527 20.294 277.056 12.041 282.311 20.294z" transform="translate(567 111)"/>
                <path fill="#FFF" d="M110.067 186.985L276.76 186.985 276.76 20.292 110.067 20.292z" transform="translate(567 111)"/>
                <path fill="#E3E5E5" d="M107.902 20.294L282.31 20.294 282.31 12.041 107.902 12.041z" transform="translate(567 111)"/>
                <path fill="#929393" d="M285.82 20.294L104.395 20.294 109.626 26.103 291.445 31.908z" transform="translate(567 111)"/>
                <path fill="#6D6E70" d="M104.394 20.294L107.902 20.294 107.902 12.041 104.394 12.041zM282.312 20.294L285.821 20.294 285.821 12.041 282.312 12.041z" transform="translate(567 111)"/>
                <path fill="#929393" d="M115.84 292.738L122.513 292.738 122.513 207.279 115.84 207.279z" transform="translate(567 111)"/>
                <path fill="#ACADAD" d="M112.504 292.738L119.177 292.738 119.177 207.279 112.504 207.279z" transform="translate(567 111)"/>
                <path fill="#929393" d="M119.169 207.278L119.169 234.961 115.836 230.914 112.503 226.89 112.503 207.278z" transform="translate(567 111)"/>
                <path fill="#6B6B6B" d="M122.503 207.278L122.503 238.987 119.169 234.961 119.169 207.278z" transform="translate(567 111)"/>
                <path fill="#C6C6C6" d="M104.472 292.738L127.199 292.738 127.199 285.682 104.472 285.682z" transform="translate(567 111)"/>
                <path fill="#929393" d="M127.199 292.738L130.536 292.738 130.536 285.682 127.199 285.682zM269.28 292.738L275.953 292.738 275.953 207.279 269.28 207.279z" transform="translate(567 111)"/>
                <path fill="#ACADAD" d="M265.942 292.738L272.615 292.738 272.615 207.279 265.942 207.279z" transform="translate(567 111)"/>
                <path fill="#929393" d="M272.608 207.278L272.608 234.961 269.275 230.914 265.941 226.89 265.941 207.278z" transform="translate(567 111)"/>
                <path fill="#6B6B6B" d="M275.941 207.278L275.941 238.987 272.608 234.961 272.608 207.278z" transform="translate(567 111)"/>
                <path fill="#C6C6C6" d="M257.912 292.738L280.639 292.738 280.639 285.682 257.912 285.682z" transform="translate(567 111)"/>
                <path fill="#929393" d="M280.637 292.738L283.974 292.738 283.974 285.682 280.637 285.682z" transform="translate(567 111)"/>
                <path fill="#2A544C" d="M33.04 296.724h324.128c1.1 0 1.993-.891 1.993-1.993s-.894-1.993-1.993-1.993H33.04c-1.102 0-1.993.891-1.993 1.993s.891 1.993 1.993 1.993M217.78 305.084h170.609c1.102 0 1.996-.892 1.996-1.993 0-1.102-.894-1.994-1.996-1.994H217.78c-1.1 0-1.993.892-1.993 1.994 0 1.101.893 1.993 1.993 1.993M91.387 305.084h115.131c1.102 0 1.994-.892 1.994-1.993 0-1.102-.892-1.994-1.994-1.994H91.387c-1.1 0-1.994.892-1.994 1.994 0 1.101.894 1.993 1.994 1.993" transform="translate(567 111)"/>
                <path fill="#19A37B" d="M200.009 292.738L231.597 292.738 231.597 249.973 200.009 249.973z" transform="translate(567 111)"/>
                <path fill="#257560" d="M231.597 292.738L240.791 292.738 240.791 249.973 231.597 249.973zM241.283 249.973h-41.441c-.684 0-1.24-.556-1.24-1.24v-.496c0-.684.556-1.238 1.24-1.238h41.44c.685 0 1.24.554 1.24 1.238v.496c0 .684-.555 1.24-1.24 1.24" transform="translate(567 111)"/>
                <path fill="#FCC106" d="M227.484 270.31L233.651 270.31 233.651 246.997 227.484 246.997z" transform="translate(567 111)"/>
                <path fill="#FCC106" d="M233.652 270.311c0-1.703-1.381-3.084-3.084-3.084-1.702 0-3.083 1.38-3.083 3.084 0 1.702 1.381 3.083 3.083 3.083 1.703 0 3.084-1.381 3.084-3.083M222.474 258.319L225.467 258.319 225.467 246.999 222.474 246.999z" transform="translate(567 111)"/>
                <path fill="#FCC106" d="M225.467 258.32c0-.827-.671-1.498-1.496-1.498-.829 0-1.498.671-1.498 1.498s.669 1.496 1.498 1.496c.825 0 1.496-.669 1.496-1.496" transform="translate(567 111)"/>
                <path fill="#031933" d="M238.618 249.903c0 9.957-8.1 18.056-18.056 18.056-9.956 0-18.058-8.1-18.058-18.056h-1.77c0 10.933 8.893 19.829 19.828 19.829 10.933 0 19.829-8.896 19.829-19.829h-1.773z" transform="translate(567 111)"/>
                <path fill="#87B9DD" d="M160.542 292.738L186.877 292.738 186.877 257.085 160.542 257.085z" transform="translate(567 111)"/>
                <path fill="#568BBF" d="M186.877 292.738L194.543 292.738 194.543 257.085 186.877 257.085z" transform="translate(567 111)"/>
                <path fill="#FFF" d="M179.28 272.598h-15.197c-.684 0-1.24-.556-1.24-1.24v-4.827c0-.684.556-1.238 1.24-1.238h15.197c.683 0 1.24.554 1.24 1.238v4.827c0 .684-.557 1.24-1.24 1.24" transform="translate(567 111)"/>
                <path fill="#568BBF" d="M194.747 257.086H160.61c-.684 0-1.24-.557-1.24-1.24 0-.687.556-1.24 1.24-1.24h34.136c.684 0 1.24.553 1.24 1.24 0 .683-.556 1.24-1.24 1.24" transform="translate(567 111)"/>
                <path fill="#DB3333" d="M183.451 274.04L188.591 274.04 188.591 254.605 183.451 254.605z" transform="translate(567 111)"/>
                <path fill="#DB3333" d="M188.591 274.04c0-1.418-1.151-2.57-2.569-2.57-1.422 0-2.571 1.152-2.571 2.57 0 1.42 1.15 2.57 2.571 2.57 1.418 0 2.57-1.15 2.57-2.57M165.124 266.674L168.317 266.674 168.317 254.607 165.124 254.607z" transform="translate(567 111)"/>
                <path fill="#DB3333" d="M168.317 266.674c0-.881-.715-1.596-1.596-1.596-.883 0-1.597.715-1.597 1.596 0 .88.714 1.595 1.597 1.595.881 0 1.596-.715 1.596-1.595M179.271 264.044L181.767 264.044 181.767 254.607 179.271 254.607z" transform="translate(567 111)"/>
                <path fill="#DB3333" d="M181.767 264.044c0-.688-.558-1.247-1.249-1.247-.688 0-1.246.559-1.246 1.247 0 .688.558 1.25 1.246 1.25.69 0 1.25-.562 1.25-1.25" transform="translate(567 111)"/>
                <path fill="#031933" d="M162.626 254.606c0-8.303 6.753-15.054 15.053-15.054 8.301 0 15.054 6.751 15.054 15.054h1.476c0-9.116-7.415-16.532-16.53-16.532-9.116 0-16.532 7.416-16.532 16.532h1.479z" transform="translate(567 111)"/>
                <path fill="#568BBF" d="M190.269 91.721L252.767 91.721 252.767 80.234 190.269 80.234z" transform="translate(567 111)"/>
                <path fill="#568BBF" d="M190.269 122.251L201.381 122.251 201.381 80.234 190.269 80.234z" transform="translate(567 111)"/>
                <path fill="#568BBF" d="M201.382 122.251c0-3.07-2.487-5.556-5.557-5.556-3.069 0-5.556 2.487-5.556 5.556 0 3.07 2.487 5.554 5.556 5.554 3.07 0 5.557-2.485 5.557-5.554M203.851 113.476L209.712 113.476 209.712 91.316 203.851 91.316z" transform="translate(567 111)"/>
                <path fill="#568BBF" d="M209.713 113.475c0-1.62-1.312-2.93-2.93-2.93-1.62 0-2.931 1.31-2.931 2.93 0 1.619 1.311 2.93 2.93 2.93 1.62 0 2.93-1.311 2.93-2.93" transform="translate(567 111)"/>
                <path fill="#F2AE75" d="M247.483 126.307c.944-2.651 3.857-4.034 6.509-3.09l37.114 13.211c2.651.942 4.034 3.857 3.093 6.509-.946 2.65-3.86 4.034-6.509 3.088l-37.116-13.21c-2.65-.943-4.035-3.856-3.09-6.508" transform="translate(567 111)"/>
                <path fill="#770017" d="M315.519 106.242c1.026-2.643-.206-5.96-2.643-7.364-2.44-1.405-5.16-.366-6.186 2.275-3.214 8.28-5.942 14.311-9.294 20.054l8.616 5.446c3.45-5.851 6.223-11.963 9.507-20.411" transform="translate(567 111)"/>
                <path fill="#F2AE75" d="M297.396 121.207c-3.167 5.426-6.894 10.595-12.136 17.147-1.773 2.212-1.306 5.088 1.132 6.495 2.437 1.403 5.924.805 7.696-1.409 5.128-6.407 8.803-11.49 11.924-16.787l-8.616-5.446z" transform="translate(567 111)"/>
                <path fill="#DD925B" d="M297.396 121.207L306.012 126.653 303.699 130.384 296.179 123.233z" transform="translate(567 111)"/>
                <path fill="#F2AE75" d="M317.572 91.126h17.353c3.374 0 6.108-2.733 6.108-6.106V49.88c0-3.372-2.734-6.105-6.108-6.105h-17.353c-3.372 0-6.108 2.733-6.108 6.106v35.14c0 3.372 2.736 6.105 6.108 6.105" transform="translate(567 111)"/>
                <path fill="#FFF" d="M324.87 77.897c0 2.095-1.7 3.794-3.792 3.794-2.096 0-3.795-1.7-3.795-3.794h7.587z" transform="translate(567 111)"/>
                <path fill="#DD925B" d="M322.193 70.894c0 .978-.795 1.773-1.773 1.773-.98 0-1.775-.795-1.775-1.773h3.548zM341.032 49.881v35.143c0 3.372-2.729 6.103-6.101 6.103h-6.896c3.37 0 6.101-2.731 6.101-6.103V49.88c0-3.374-2.731-6.103-6.101-6.103h6.896c3.372 0 6.101 2.729 6.101 6.103" transform="translate(567 111)"/>
                <path fill="#DD925B" d="M330.477 70.015h-4.098c-.495 0-.894-.403-.894-.894 0-.496.399-.894.894-.894h4.098c.495 0 .896.398.896.894 0 .49-.4.894-.896.894M315.838 70.015h-4.097c-.496 0-.894-.403-.894-.894 0-.496.398-.894.894-.894h4.097c.496 0 .894.398.894.894 0 .49-.398.894-.894.894" transform="translate(567 111)"/>
                <path fill="#190B05" d="M324.532 64.261c0 .775.627 1.403 1.402 1.403.775 0 1.403-.628 1.403-1.403 0-.773-.628-1.4-1.403-1.4s-1.402.627-1.402 1.4M314.479 64.261c0 .775.628 1.403 1.402 1.403.775 0 1.403-.628 1.403-1.403 0-.773-.628-1.4-1.403-1.4-.774 0-1.402.627-1.402 1.4" transform="translate(567 111)"/>
                <path fill="#5C331D" d="M330.783 52.3h-16.02c-3.488 0-6.317-2.83-6.317-6.316V35.519h28.653v10.465c0 3.487-2.827 6.316-6.316 6.316" transform="translate(567 111)"/>
                <path fill="#5C331D" d="M310.86 48.48c-1.316 0-2.385-1.067-2.385-2.387V33.978c0-1.318 1.07-2.385 2.385-2.385 1.318 0 2.387 1.067 2.387 2.385v12.115c0 1.32-1.069 2.387-2.387 2.387" transform="translate(567 111)"/>
                <path fill="#5C331D" d="M315.63 48.48c-1.315 0-2.384-1.067-2.384-2.387V33.978c0-1.318 1.069-2.385 2.385-2.385 1.318 0 2.387 1.067 2.387 2.385v12.115c0 1.32-1.07 2.387-2.387 2.387" transform="translate(567 111)"/>
                <path fill="#5C331D" d="M320.403 48.48c-1.319 0-2.386-1.067-2.386-2.387V33.978c0-1.318 1.067-2.385 2.386-2.385 1.315 0 2.385 1.067 2.385 2.385v12.115c0 1.32-1.07 2.387-2.385 2.387M325.173 48.48c-1.318 0-2.385-1.067-2.385-2.387V33.978c0-1.318 1.067-2.385 2.385-2.385 1.316 0 2.385 1.067 2.385 2.385v12.115c0 1.32-1.069 2.387-2.385 2.387M329.944 48.48c-1.318 0-2.385-1.067-2.385-2.387V33.978c0-1.318 1.067-2.385 2.385-2.385 1.316 0 2.385 1.067 2.385 2.385v12.115c0 1.32-1.07 2.387-2.385 2.387" transform="translate(567 111)"/>
                <path fill="#5C331D" d="M334.715 48.48c-1.319 0-2.386-1.067-2.386-2.387V33.978c0-1.318 1.067-2.385 2.386-2.385 1.316 0 2.385 1.067 2.385 2.385v12.115c0 1.32-1.07 2.387-2.385 2.387" transform="translate(567 111)"/>
                <path fill="#3F2215" d="M340.062 68.581c-2.17 0-3.933-1.76-3.933-3.932v-20.68c0-2.173 1.762-3.932 3.933-3.932 2.173 0 3.933 1.76 3.933 3.932v20.68c0 2.173-1.76 3.932-3.933 3.932" transform="translate(567 111)"/>
                <path fill="#F2AE75" d="M344.325 68.226c0 2.743-2.223 4.968-4.968 4.968v-9.937c2.745 0 4.968 2.225 4.968 4.97" transform="translate(567 111)"/>
                <path fill="#5C331D" d="M324.036 101.597L329.991 101.597 329.991 95.641 324.036 95.641z" transform="translate(567 111)"/>
                <path fill="#DB3333" d="M307.253 176.064h45.328v-71.392c0-3.342-2.71-6.052-6.052-6.052H310.56c-1.827 0-3.307 1.479-3.307 3.305v74.14z" transform="translate(567 111)"/>
                <path fill="#002B6A" d="M310.418 183.167h.041c-.028.156-.04.32-.04.487 0 .997.404 1.898 1.06 2.554.654.656 1.556 1.06 2.554 1.06h31.551c1.994 0 3.615-1.62 3.615-3.614 0-.167-.013-.331-.041-.487h.04v-7.23h-38.78v7.23z" transform="translate(567 111)"/>
                <path fill="#F2AE75" d="M337.544 98.62H315.226l6.669 6.666c2.48 2.48 6.502 2.48 8.982 0l6.667-6.666z" transform="translate(567 111)"/>
                <path fill="#DD925B" d="M325.35 98.738L330.878 98.738 330.878 90.403 325.35 90.403z" transform="translate(567 111)"/>
                <path fill="#F2AE75" d="M322.333 101.597L327.861 101.597 327.861 90.403 322.333 90.403z" transform="translate(567 111)"/>
                <path fill="#FFF" d="M291.873 283.288L304.24 283.288 304.24 272.602 291.873 272.602zM276.927 292.738L306.814 292.738 306.814 289.249 276.927 289.249z" transform="translate(567 111)"/>
                <path fill="#770017" d="M306.82 284.47v4.78h-29.897c0-4.439 5.64-8.103 13.173-8.99 1.145-.146 2.348-.23 3.552-.23h8.762c2.09 0 3.867 1.46 4.296 3.465.084.314.115.63.115.974" transform="translate(567 111)"/>
                <path fill="#770017" d="M290.798 280.434c0-1.885 1.528-3.415 3.413-3.415 1.887 0 3.415 1.53 3.415 3.415h-6.828z" transform="translate(567 111)"/>
                <path fill="#FFF" d="M289.01 289.248h-2.073v-8.03c0-.433.35-.783.784-.783h.506c.433 0 .784.35.784.783v8.03zM285.06 289.248h-2.074v-7.35c0-.431.351-.782.784-.782h.506c.433 0 .784.351.784.782v7.35z" transform="translate(567 111)"/>
                <path fill="#002B6A" d="M295.37 228.867c-3.163-1.551-4.468-5.372-2.918-8.534l18.134-36.956c1.552-3.164 5.374-4.467 8.536-2.915 3.163 1.551 4.468 5.372 2.916 8.534l-18.134 36.956c-1.55 3.162-5.372 4.467-8.535 2.915" transform="translate(567 111)"/>
                <path fill="#002B6A" d="M304.627 269.986h-12.755v-46.614c0-3.524 2.854-6.376 6.378-6.376 3.522 0 6.377 2.852 6.377 6.376v46.614z" transform="translate(567 111)"/>
                <path fill="#031933" d="M293.41 273.719h9.785c1.482 0 2.684-1.113 2.684-2.483 0-1.372-1.202-2.485-2.684-2.485h-9.786c-1.483 0-2.682 1.113-2.682 2.485 0 1.37 1.2 2.483 2.682 2.483" transform="translate(567 111)"/>
                <path fill="#002B6A" d="M337.237 276.025h.738c3.32 0 6.009-2.509 6.009-5.606v-85.786c0-3.096-2.688-5.604-6.009-5.604h-.738c-3.318 0-6.008 2.508-6.008 5.604v85.786c0 3.097 2.69 5.606 6.008 5.606" transform="translate(567 111)"/>
                <path fill="#FFF" d="M331.679 283.288L344.049 283.288 344.049 272.602 331.679 272.602zM316.736 292.738L346.623 292.738 346.623 289.249 316.736 289.249z" transform="translate(567 111)"/>
                <path fill="#770017" d="M346.629 284.47v4.78H316.73c0-4.439 5.64-8.103 13.173-8.99 1.145-.146 2.348-.23 3.552-.23h8.761c2.091 0 3.868 1.46 4.297 3.465.086.314.115.63.115.974" transform="translate(567 111)"/>
                <path fill="#770017" d="M330.605 280.434c0-1.885 1.53-3.415 3.416-3.415 1.885 0 3.413 1.53 3.413 3.415h-6.829z" transform="translate(567 111)"/>
                <path fill="#FFF" d="M328.818 289.248h-2.073v-8.03c0-.433.35-.783.783-.783h.507c.433 0 .783.35.783.783v8.03zM324.868 289.248h-2.074v-7.35c0-.431.35-.782.784-.782h.506c.433 0 .784.351.784.782v7.35z" transform="translate(567 111)"/>
                <path fill="#031933" d="M331.692 232.023h4.656c1.067 0 1.928-.863 1.928-1.93v-7.868c0-1.067-.861-1.931-1.928-1.931h-4.656c-1.065 0-1.929.864-1.929 1.93v7.869c0 1.067.864 1.93 1.929 1.93M332.542 273.719h9.785c1.483 0 2.684-1.113 2.684-2.483 0-1.372-1.201-2.485-2.684-2.485h-9.785c-1.483 0-2.682 1.113-2.682 2.485 0 1.37 1.199 2.483 2.682 2.483M292.312 230.594h4.656c1.067 0 1.928-.863 1.928-1.93v-7.868c0-1.067-.861-1.93-1.928-1.93h-4.656c-1.065 0-1.929.863-1.929 1.93v7.868c0 1.067.864 1.93 1.929 1.93M349.46 180.804L310.417 178.117 310.417 175.938 349.46 175.938z" transform="translate(567 111)"/>
                <path fill="#002B6A" d="M310.162 149.224L335.8 149.224 335.8 115.675 310.162 115.675z" transform="translate(567 111)"/>
                <path fill="#002B6A" d="M352.59 157.882L352.59 175.934 307.245 175.934 307.245 157.882 310.427 145.61 335.902 145.783z" transform="translate(567 111)"/>
                <path fill="#031933" d="M310.389 116.46c.015.205.1.404.216.567.048.077.1.134.152.194.047.078.12.141.199.184.078.04.136.078.22.098.462.114.936-.17 1.05-.63.026-.104.03-.214.015-.331l.005-.022c-.663-7.348.333-11.428 4.342-17.567.021-.082.078-.134.12-.214.057-.052.074-.115.094-.2.125-.503-.173-1.001-.678-1.129-.04-.01-.103-.026-.151-.015-.394-.03-.755.17-.913.53-.026.015-.037.059-.063.076-4.33 6.524-5.362 10.662-4.608 18.458M334.436 116.46c.015.205.1.404.214.567.047.077.102.134.154.194.045.078.12.141.199.184.078.04.136.078.22.098.461.114.933-.17 1.05-.63.026-.104.03-.214.015-.331l.005-.022c-.663-7.348.333-11.428 4.342-17.567.021-.082.077-.134.119-.214.058-.052.075-.115.095-.2.125-.503-.173-1.001-.678-1.129-.04-.01-.104-.026-.151-.015-.394-.03-.756.17-.914.53-.026.015-.036.059-.062.076-4.33 6.524-5.362 10.662-4.608 18.458" transform="translate(567 111)"/>
                <path fill="#770017" d="M335.864 152.365l-1.104 9.734c2.052.234 4.091.266 6.083.125 15.794-1.08 29.06-13.291 30.908-29.581 1.708-15.05-6.868-28.896-20.136-34.53l-.898-.366c-.277-.082-.556-.145-.855-.177-.58-.067-1.15-.028-1.693.106-1.985.459-3.547 2.128-3.79 4.258-.292 2.577 1.427 4.902 3.911 5.41 9.098 4.12 14.911 13.75 13.727 24.195-1.238 10.894-9.681 19.207-20.045 20.727-1.978.29-4.025.335-6.108.1" transform="translate(567 111)"/>
                <path fill="#F2AE75" d="M328.776 153.016c.972-.787 2.255-1.214 3.602-1.071l3.493.366-1.108 9.762-3.41-.358c-2.703-.283-4.655-2.697-4.371-5.4.14-1.344.811-2.515 1.794-3.299" transform="translate(567 111)"/>
                <path fill="#F2AE75" d="M331.364 161.708l3.396.368v.032c2.052.213 4.089.26 6.093.122 10.193-.706 19.3-6.048 24.993-14.128l-7.056-7.056c-3.612 6.002-9.764 10.195-16.82 11.22-1.974.289-4.01.336-6.106.107v-.063l-3.491-.366c-1.33-.136-2.632.275-3.61 1.072-.966.781-1.639 1.943-1.775 3.307-.293 2.708 1.651 5.11 4.376 5.385" transform="translate(567 111)"/>
                <path fill="#DD925B" d="M358.79 141.046l7.057 7.056c-.56.793-2.143 2.76-2.766 3.498l-5.963-8.155c.6-.764 1.166-1.559 1.673-2.399" transform="translate(567 111)"/>
                <path fill="#031933" d="M328.22 145.61h-11.48c-1.624 0-2.94-1.316-2.94-2.94v-7.703h17.36v7.704c0 1.623-1.317 2.939-2.94 2.939" transform="translate(567 111)"/>
                <path fill="#568BBF" d="M332.103 134.967c0-.537-.437-.974-.974-.974h-17.175c-.537 0-.972.437-.972.974 0 .537.435.974.972.974h17.175c.537 0 .974-.437.974-.974" transform="translate(567 111)"/>
                <path fill="#FCC106" d="M314.093 204.206L340.428 204.206 340.428 168.553 314.093 168.553z" transform="translate(567 111)"/>
                <path fill="#F99608" d="M340.428 204.206L348.094 204.206 348.094 168.553 340.428 168.553z" transform="translate(567 111)"/>
                <path fill="#FFF" d="M332.83 184.067h-15.198c-.684 0-1.24-.556-1.24-1.24V178c0-.684.556-1.238 1.24-1.238h15.197c.684 0 1.24.554 1.24 1.238v4.827c0 .684-.556 1.24-1.24 1.24" transform="translate(567 111)"/>
                <path fill="#F99608" d="M348.296 168.554h-34.135c-.684 0-1.24-.556-1.24-1.24 0-.686.556-1.24 1.24-1.24h34.135c.684 0 1.24.554 1.24 1.24 0 .684-.556 1.24-1.24 1.24" transform="translate(567 111)"/>
                <path fill="#568BBF" d="M337.002 185.509L342.142 185.509 342.142 166.074 337.002 166.074z" transform="translate(567 111)"/>
                <path fill="#568BBF" d="M342.141 185.509c0-1.418-1.151-2.57-2.57-2.57-1.42 0-2.57 1.152-2.57 2.57 0 1.42 1.15 2.569 2.57 2.569 1.419 0 2.57-1.15 2.57-2.57M332.822 175.514L335.318 175.514 335.318 166.077 332.822 166.077z" transform="translate(567 111)"/>
                <path fill="#568BBF" d="M335.318 175.513c0-.689-.558-1.25-1.249-1.25-.69 0-1.247.561-1.247 1.25 0 .688.557 1.249 1.247 1.249.69 0 1.249-.561 1.249-1.25" transform="translate(567 111)"/>
                <path fill="#FFF" d="M316.175 166.075c0-8.303 6.753-15.054 15.054-15.054 8.3 0 15.053 6.751 15.053 15.054h1.479c0-9.117-7.416-16.532-16.532-16.532-9.115 0-16.532 7.415-16.532 16.532h1.478z" transform="translate(567 111)"/>
                <path fill="#7F5040" d="M244.339 102.413L262.421 102.413 262.421 99.591 244.339 99.591z" transform="translate(567 111)"/>
                <path fill="#E3E5E5" d="M244.339 99.591L262.421 99.591 262.421 80.234 244.339 80.234z" transform="translate(567 111)"/>
                <path fill="#3A1B10" d="M262.425 102.422l-5.863 6.217h-.163v29.908c0 1.714-1.376 3.108-3.093 3.108-1.716 0-3.108-1.394-3.108-3.108V108.64l-5.866-6.217h18.093z" transform="translate(567 111)"/>
                <path fill="#ACADAD" d="M248.046 79.793c-.363 0-.66.296-.66.66V99.59h1.32V80.453c0-.364-.296-.66-.66-.66M250.567 79.793c-.364 0-.66.296-.66.66V99.59h1.32V80.453c0-.364-.296-.66-.66-.66" transform="translate(567 111)"/>
                <path fill="#FFF" d="M254.277 138.537c0 .496-.403.899-.899.899-.495 0-.898-.403-.898-.899 0-.495.403-.898.898-.898.496 0 .899.403.899.898" transform="translate(567 111)"/>
                <path fill="#F2AE75" d="M247.541 126.178c-1.02 2.438-.75 4.873.6 5.435 1.348.563 3.27-.956 4.288-3.396 1.02-2.437.75-4.872-.6-5.435-1.348-.562-3.268.957-4.288 3.396" transform="translate(567 111)"/>
                <path fill="#19A37B" d="M244.506 292.738L255.869 292.738 255.869 252.941 244.506 252.941z" transform="translate(567 111)"/>
                <path fill="#031933" d="M246.006 252.941L254.371 252.941 254.371 250.332 246.006 250.332z" transform="translate(567 111)"/>
                <path fill="#CCC" d="M248.882 250.332L251.492 250.332 251.492 248.248 248.882 248.248z" transform="translate(567 111)"/>
                <path fill="#257560" d="M252.352 292.738L255.869 292.738 255.869 252.941 252.352 252.941z" transform="translate(567 111)"/>
            </g>
            <g transform="translate(120 60)">
                <path fill="#DD925B" d="M169.571 88.204c2.65-1.652 6.132-.843 7.783 1.804l23.112 37.068c1.652 2.648.843 6.132-1.804 7.784-2.648 1.648-6.132.842-7.784-1.808l-23.112-37.065c-1.648-2.647-.844-6.135 1.805-7.783"/>
                <path fill="#031933" d="M212.361 84.841c.233-3.134-2.148-6.252-5.186-6.952-3.041-.699-5.592 1.284-5.825 4.418-.73 9.818-1.666 17.1-3.36 24.274l10.9 2.983c1.762-7.32 2.725-14.698 3.471-24.723"/>
                <path fill="#DD925B" d="M197.99 106.58c-1.604 6.783-3.882 13.47-7.32 22.117-1.16 2.92.266 5.82 3.306 6.52 3.041.7 6.545-1.065 7.704-3.986 3.363-8.455 5.614-15.038 7.21-21.667l-10.9-2.983z"/>
                <path fill="#7F5040" d="M160.555 118.439c-1.45-.653-2.093-2.354-1.44-3.804l17.577-38.974 5.242 2.367-17.575 38.971c-.653 1.45-2.355 2.093-3.804 1.44"/>
                <path fill="#D1D1D1" d="M170.211 65.772L169.93 65.808 168.145 69.77 168.303 70.005 170.113 72.59 173.348 65.416z"/>
                <path fill="#E3E8E8" d="M191.016 73.278l-17.476-7.881-.044.002-.148.017-3.236 7.174.087.124.026.032 17.477 7.881c1.16.523 2.52.007 3.043-1.152l1.421-3.153c.523-1.16.007-2.52-1.15-3.044"/>
                <path fill="#F2AE75" d="M167.401 90.32c-1.128 2.702-.83 5.402.665 6.029 1.497.624 3.626-1.061 4.757-3.766 1.128-2.705.83-5.402-.668-6.026-1.495-.627-3.624 1.058-4.754 3.763"/>
                <mask id="nl70gt497b" fill="#fff">
                    <use xlink:href="#mdrg7wikma"/>
                </mask>
                <path fill="#929393" d="M131.34 293.237L148.003 293.237 148.003 192.876 131.34 192.876z" mask="url(#nl70gt497b)"/>
                <path fill="#E3E8E8" d="M123.01 293.237L139.673 293.237 139.673 192.876 123.01 192.876z" mask="url(#nl70gt497b)"/>
                <path fill="#929393" d="M139.653 192.874L139.653 225.385 131.33 220.63 123.007 215.905 123.007 192.874z" mask="url(#nl70gt497b)"/>
                <path fill="#6B6B6B" d="M147.976 192.874L147.976 230.113 139.653 225.385 139.653 192.874z" mask="url(#nl70gt497b)"/>
                <path fill="#E3E8E8" d="M102.958 293.237L159.703 293.237 159.703 284.952 102.958 284.952z" mask="url(#nl70gt497b)"/>
                <path fill="#929393" d="M159.703 293.237L168.036 293.237 168.036 284.952 159.703 284.952z" mask="url(#nl70gt497b)"/>
                <path fill="#E3E8E8" d="M164.86 192.784h-57.338c-5.006 0-9.062-4.058-9.062-9.065 0-5.004 4.056-9.062 9.062-9.062h57.338c5.004 0 9.063 4.058 9.063 9.062 0 5.007-4.059 9.065-9.063 9.065" mask="url(#nl70gt497b)"/>
                <path fill="#929393" d="M164.86 174.656h-7.221c5.006 0 9.065 4.059 9.065 9.063 0 5.006-4.059 9.064-9.065 9.064h7.221c5.004 0 9.063-4.058 9.063-9.064 0-5.004-4.059-9.063-9.063-9.063" mask="url(#nl70gt497b)"/>
                <path fill="#FFF" d="M131.41 171.673l.257 1.286c.34 1.43 1.872 2.314 3.44 2.002 1.065-.216 1.888-.922 2.246-1.803.053-.134.09-.278.115-.417.062-.295.065-.615.024-.95-.007-.034-.012-.06-.007-.097l-.005-.024c-.269-2.217-.175-3.415.478-5.635.436-1.548-.286-2.805-1.966-2.86-.312-.01-.626.016-.948.08-1.414.284-2.82 1.278-3.19 2.557-.645 2.254-.739 3.451-.453 5.74l.029.142-.02-.021z" mask="url(#nl70gt497b)"/>
                <path fill="#F2AE75" d="M137.469 172.741c.08-.336.089-.693.017-1.048-.005.038 0 .062.007.098.038.336.036.655-.024.95" mask="url(#nl70gt497b)"/>
                <path fill="#FFF" d="M132.024 165.926L138.039 164.718 131.071 130 125.059 131.207z" mask="url(#nl70gt497b)"/>
                <path fill="#FFF" d="M125.523 133.527L131.537 132.32 126.72 108.315 120.706 109.522z" mask="url(#nl70gt497b)"/>
                <path fill="#FFF" d="M136.492 133.363l-1.054.965c-1.214 1.041-3.048.924-4.128-.257-.734-.804-.948-1.889-.662-2.858.043-.15.105-.296.177-.43.142-.29.348-.569.603-.835.028-.029.048-.046.07-.082.009-.01.009-.01.018-.017 1.676-1.764 2.381-2.856 3.3-5.155.656-1.593 2.07-2.265 3.485-1.339.26.17.502.374.725.617.972 1.065 1.474 2.738.94 4.06-.945 2.326-1.653 3.418-3.386 5.233l-.117.105.029-.007z" mask="url(#nl70gt497b)"/>
                <path fill="#F2AE75" d="M130.824 130.782c.154-.336.382-.65.672-.916-.021.036-.038.055-.07.081-.251.267-.458.545-.602.835" mask="url(#nl70gt497b)"/>
                <path fill="#FFF" d="M139.752 128.03l-4.14-4.523 22.512-20.6c1.25-1.144 3.187-1.058 4.332.193 1.145 1.248 1.056 3.187-.192 4.332l-22.512 20.599z" mask="url(#nl70gt497b)"/>
                <path fill="#FFF" d="M129.77 103.65c.074-1.692 1.51-3.002 3.201-2.928l27.42 1.217c1.692.074 3.005 1.507 2.928 3.199-.077 1.692-1.507 3.002-3.199 2.928l-27.42-1.217c-1.692-.074-3.005-1.507-2.93-3.199M99.493 32.22c12.543 7.034 21.106 19.51 23.163 33.676.019.099.026.204.045.303.072.345.209.665.413.97.845 1.262 2.556 1.6 3.82.753.752-.502 1.172-1.289 1.222-2.129 0 0-.007-.012-.002-.029-.014-.256-.034-.496-.072-.741-1.337-15.235-10.166-28.795-23.446-36.25-.657-.365-1.312-.73-1.999-1.075-.259-.127-.554-.214-.85-.3-.367-.146-.77-.209-1.173-.175-.46.024-.922.158-1.325.43-1.231.823-1.555 2.479-.741 3.7.25.37.59.665.957.86l-.012.007zM185.312 82.091c-13.84 3.895-28.718 1.128-40.19-7.435-.082-.058-.164-.125-.248-.183-.295-.192-.614-.324-.976-.393-1.493-.295-2.94.674-3.236 2.167-.175.888.084 1.742.641 2.371 0 0 .012.005.024.02.192.17.375.328.574.475 11.719 9.828 27.552 13.168 42.21 9.05.726-.206 1.448-.41 2.175-.653.274-.093.543-.24.812-.389.364-.153.693-.396.957-.705.307-.341.538-.763.631-1.239.286-1.454-.652-2.856-2.092-3.141-.437-.087-.886-.053-1.284.067l.002-.012z" mask="url(#nl70gt497b)"/>
                <path fill="#6B6B6B" d="M135.798 38.112c-1.397 3.033-.07 6.624 2.961 8.02 3.034 1.4 6.624.073 8.024-2.961 1.396-3.031.07-6.624-2.962-8.02-3.034-1.398-6.626-.073-8.023 2.96" mask="url(#nl70gt497b)"/>
                <path fill="#F2AE75" d="M137.792 62.234c-3.708-1.707-5.328-6.096-3.619-9.802l4.359-9.46c1.708-3.709 6.096-5.329 9.804-3.62 3.705 1.706 5.323 6.096 3.616 9.802l-4.358 9.46c-1.709 3.708-6.096 5.326-9.802 3.62" mask="url(#nl70gt497b)"/>
                <path fill="#DD925B" d="M150.938 51.356l1.016-2.203c1.706-3.706.086-8.095-3.62-9.802-3.708-1.706-8.095-.088-9.804 3.62l-.583 1.267c2.259-.269 4.615.05 6.835 1.07 2.801 1.291 4.91 3.47 6.156 6.048" mask="url(#nl70gt497b)"/>
                <path fill="#F2AE75" d="M138.81 62.617c-.344-.101-.682-.23-1.018-.384-3.708-1.71-5.328-6.094-3.622-9.8l4.364-9.465c1.706-3.703 6.09-5.323 9.801-3.614.331.153.65.328.948.52-3.456-1.017-7.231.63-8.786 4.001l-4.359 9.463c-1.555 3.375-.35 7.313 2.672 9.279" mask="url(#nl70gt497b)"/>
                <path fill="#F2AE75" d="M140.258 44.425c-.25.547-.898.785-1.445.533-.545-.252-.785-.898-.53-1.445.25-.545.897-.785 1.442-.533.547.252.785.898.533 1.445" mask="url(#nl70gt497b)"/>
                <path fill="#FFF" d="M133.442 49.457c-.612 1.324-.033 2.896 1.294 3.506l2.213-4.802c-1.327-.61-2.897-.03-3.507 1.296" mask="url(#nl70gt497b)"/>
                <path fill="#6B6B6B" d="M115.906 88.91l7.822-22.377c1.176-2.554 2.92-4.397 5.474-3.221l13.073 6.024c2.556 1.176 3.672 4.2 2.494 6.753l-7.354 12.483-3.977 8.414-.012.072-17.57-8.097.05-.05z" mask="url(#nl70gt497b)"/>
                <path fill="#FFF" d="M135.42 70.044L132.377 68.645 136.239 60.267 139.28 61.668z" mask="url(#nl70gt497b)"/>
                <path fill="#FFF" d="M137.082 70.809L134.039 69.41 137.901 61.032 140.939 62.433z" mask="url(#nl70gt497b)"/>
                <path fill="#FFF" d="M131.769 64.464L137.908 67.293 140.402 68.441 132.726 78.537z" mask="url(#nl70gt497b)"/>
                <path fill="#6B6B6B" d="M133.26 80.756c-1.155 2.506-.058 5.475 2.448 6.629 2.505 1.154 5.474.06 6.628-2.448 1.155-2.506.06-5.474-2.448-6.629-2.505-1.154-5.474-.057-6.628 2.448M115.855 88.962s-2.935 8.757-2.727 14.165l6.766 1.267s9.638-12.485 8.263-12.348c-1.375.137-12.302-3.084-12.302-3.084" mask="url(#nl70gt497b)"/>
                <path fill="#6B6B6B" d="M135.355 92.311l17.544 5.57s-24.156 25.054-58.575 11.367l20.604-17.201 20.427.264z" mask="url(#nl70gt497b)"/>
                <path fill="#FFF" d="M137.792 62.234c-3.708-1.707-5.328-6.096-3.619-9.802l4.359-9.46c1.708-3.709 6.096-5.329 9.804-3.62 3.705 1.706 5.323 6.096 3.616 9.802l-4.358 9.46c-1.709 3.708-6.096 5.326-9.802 3.62" mask="url(#nl70gt497b)"/>
                <path fill="#6B6B6B" d="M150.938 51.356l1.016-2.203c1.706-3.706.086-8.095-3.62-9.802-3.708-1.706-8.095-.088-9.804 3.62l-.583 1.267c2.259-.269 4.615.05 6.835 1.07 2.801 1.291 4.91 3.47 6.156 6.048" mask="url(#nl70gt497b)"/>
                <path fill="#F2AE75" d="M216.383 68.765h19.063c3.708 0 6.713-3.003 6.713-6.71V23.447c0-3.708-3.005-6.713-6.713-6.713h-19.063c-3.708 0-6.713 3.005-6.713 6.713v38.606c0 3.708 3.005 6.71 6.713 6.71" mask="url(#nl70gt497b)"/>
                <path fill="#5C331D" d="M221.801 81.175L228.406 81.175 228.406 74.573 221.801 74.573z" mask="url(#nl70gt497b)"/>
                <path fill="#87B9DD" d="M203.192 163.747h50.261V84.583c0-3.705-3.005-6.71-6.71-6.71H206.86c-2.024 0-3.668 1.641-3.668 3.667v82.207z" mask="url(#nl70gt497b)"/>
                <path fill="#DB3333" d="M206.703 171.621h.046c-.029.175-.046.355-.046.538 0 1.106.45 2.107 1.174 2.834.73.727 1.728 1.176 2.834 1.176h34.985c2.213 0 4.008-1.797 4.008-4.01 0-.183-.017-.363-.048-.538h.048v-8.016h-43v8.016z" mask="url(#nl70gt497b)"/>
                <path fill="#FFF" d="M224.399 54.228c0 2.302-1.865 4.167-4.167 4.167-2.301 0-4.169-1.865-4.169-4.167h8.336z" mask="url(#nl70gt497b)"/>
                <path fill="#DD925B" d="M221.457 46.533c0 1.077-.871 1.949-1.949 1.949-1.075 0-1.948-.872-1.948-1.95h3.897zM242.16 23.446v38.61c0 3.706-3.003 6.709-6.706 6.709h-7.577c3.706 0 6.706-3.003 6.706-6.708V23.446c0-3.706-3-6.706-6.706-6.706h7.577c3.703 0 6.706 3 6.706 6.706" mask="url(#nl70gt497b)"/>
                <path fill="#DD925B" d="M230.56 45.567h-4.502c-.545 0-.982-.441-.982-.984 0-.542.437-.981.982-.981h4.502c.545 0 .982.439.982.981 0 .543-.437.984-.982.984M214.475 45.567h-4.502c-.543 0-.982-.441-.982-.984 0-.542.44-.981.982-.981h4.502c.545 0 .984.439.984.981 0 .543-.44.984-.984.984" mask="url(#nl70gt497b)"/>
                <path fill="#0E0F2D" d="M224.914 36.73h6.79c.324 0 .628.08.885.211.154.067.286.156.401.257.418.37.629.914.475 1.474l-.504 1.874c-.199.703-.924 1.217-1.761 1.217h-5.782c-.84 0-1.562-.514-1.762-1.217l-.504-1.874c-.268-.994.6-1.942 1.762-1.942m-3.85 1.428l.713 3.538c.27 1.348 1.296 2.296 2.47 2.296h8.121c1.174 0 2.201-.948 2.47-2.296l.715-3.538c.065-.324.084-.648.055-.96h.18c.077 0 .144-.012.212-.022.542-.122.943-.67.943-1.327 0-.66-.4-1.205-.943-1.327-.01-.012-.02-.024-.039-.024h-12.42c-1.639 0-2.849 1.798-2.477 3.66" mask="url(#nl70gt497b)"/>
                <path fill="#F2AE75" d="M223.152 38.67l.504 1.875c.199.703.924 1.217 1.761 1.217h5.784c.836 0 1.56-.514 1.76-1.217l.506-1.874c.151-.557-.06-1.104-.475-1.471-.115-.101-.25-.19-.401-.257-.26-.135-.564-.214-.888-.214h-6.79c-1.161 0-2.028.948-1.761 1.942" mask="url(#nl70gt497b)"/>
                <path fill="#0E0F2D" d="M235.79 37.02h.17c.021 0 .04-.01.04-.022-.067.012-.134.022-.21.022M217.384 38.67l-.507 1.875c-.199.703-.924 1.217-1.761 1.217h-5.782c-.837 0-1.562-.514-1.761-1.217l-.507-1.874c-.149-.557.06-1.104.478-1.471.113-.101.247-.19.398-.257.26-.135.564-.214.888-.214h6.792c1.162 0 2.026.948 1.762 1.942m-.391-4.171h-12.42c-.02 0-.03.01-.039.021-.542.123-.943.67-.943 1.327 0 .66.4 1.205.943 1.328.067.012.132.024.209.024h.182c-.028.312-.01.633.058.96l.713 3.535c.266 1.349 1.296 2.299 2.467 2.299h8.124c1.171 0 2.2-.95 2.467-2.3l.715-3.534c.37-1.865-.837-3.66-2.476-3.66" mask="url(#nl70gt497b)"/>
                <path fill="#F2AE75" d="M217.384 38.67l-.507 1.875c-.199.703-.924 1.217-1.761 1.217h-5.782c-.837 0-1.562-.514-1.761-1.217l-.507-1.874c-.149-.557.06-1.104.478-1.471.113-.101.247-.19.398-.257.26-.135.564-.214.888-.214h6.792c1.162 0 2.026.948 1.762 1.942" mask="url(#nl70gt497b)"/>
                <path fill="#0E0F2D" d="M204.744 37.02h-.17c-.02 0-.039-.01-.039-.022.065.012.132.022.209.022M205.56 36.654h-.161c-.017 0-.036-.01-.036-.017.062.007.125.017.197.017M222.13 37.732h-3.12c-.024 0-.043-.02-.043-.043V35.62c0-.024.019-.043.043-.043h3.12c.024 0 .043.02.043.043v2.069c0 .024-.02.043-.043.043" mask="url(#nl70gt497b)"/>
                <path fill="#190B05" d="M224.028 39.246c0 .85.689 1.54 1.541 1.54.85 0 1.54-.69 1.54-1.54 0-.852-.69-1.54-1.54-1.54-.852 0-1.54.688-1.54 1.54M212.982 39.246c0 .85.691 1.54 1.543 1.54.85 0 1.539-.69 1.539-1.54 0-.852-.689-1.54-1.539-1.54-.852 0-1.543.688-1.543 1.54" mask="url(#nl70gt497b)"/>
                <path fill="#F2AE75" d="M236.78 77.874H212.035l7.395 7.392c2.75 2.75 7.207 2.75 9.96 0l7.392-7.392z" mask="url(#nl70gt497b)"/>
                <path fill="#5C331D" d="M208.461 23.224S193.31 24.232 196.833 0c0 0 1.85 8.256 10.882 7.816l12.79-.619c4.466-.12 8.215 3.127 8.419 7.323.204 4.2-3.219 7.77-7.676 8.083v.002l-.019.003c-.057.002-.11.019-.168.021-.14.007-.293.015-.434.007l-12.166.588z" mask="url(#nl70gt497b)"/>
                <path fill="#190B05" d="M243.587 54.228h-3.377c-1.805 0-3.269-1.464-3.269-3.268V10.083h6.497c1.886 0 3.415 1.531 3.415 3.42V50.96c0 1.804-1.461 3.268-3.266 3.268" mask="url(#nl70gt497b)"/>
                <path fill="#5C331D" d="M230.005 22.806s2.186 9.816 17.97 2.779c0 0-5.953.46-7.367-5.357l-2.004-8.237c-.766-2.86-3.68-4.596-6.566-3.895-2.89.703-4.668 3.583-4.035 6.47v.003l.003.012c.007.036.007.074.014.113.024.089.046.187.08.273l1.905 7.839z" mask="url(#nl70gt497b)"/>
                <path fill="#F2AE75" d="M245.249 43.6c0 3.015-2.446 5.458-5.458 5.458V38.143c3.012 0 5.458 2.443 5.458 5.458" mask="url(#nl70gt497b)"/>
                <path fill="#DD925B" d="M223.26 78.005L229.39 78.005 229.39 68.765 223.26 68.765z" mask="url(#nl70gt497b)"/>
                <path fill="#F2AE75" d="M219.912 81.175L226.044 81.175 226.044 68.765 219.912 68.765z" mask="url(#nl70gt497b)"/>
                <path fill="#FFF" d="M186.137 282.636L199.853 282.636 199.853 270.787 186.137 270.787zM169.567 293.117L202.706 293.117 202.706 289.248 169.567 289.248z" mask="url(#nl70gt497b)"/>
                <path fill="#22296B" d="M202.714 283.946v5.304h-33.151c0-4.922 6.254-8.988 14.604-9.972 1.272-.158 2.604-.254 3.938-.254h9.718c2.318 0 4.286 1.62 4.764 3.842.093.35.127.699.127 1.08" mask="url(#nl70gt497b)"/>
                <path fill="#22296B" d="M184.946 279.474c0-2.093 1.697-3.788 3.787-3.788s3.785 1.695 3.785 3.788h-7.572z" mask="url(#nl70gt497b)"/>
                <path fill="#0E0F2D" d="M182.966 289.247h-2.3v-8.904c0-.48.39-.869.867-.869h.564c.48 0 .869.389.869.869v8.904zM178.585 289.247h-2.299v-8.148c0-.48.389-.869.869-.869h.561c.48 0 .87.389.87.869v8.148z" mask="url(#nl70gt497b)"/>
                <path fill="#DB3333" d="M190.016 222.296c-3.507-1.72-4.952-5.956-3.233-9.463l20.107-40.98c1.72-3.506 5.957-4.953 9.466-3.233 3.506 1.721 4.95 5.96 3.23 9.466l-20.107 40.975c-1.719 3.509-5.957 4.956-9.463 3.235" mask="url(#nl70gt497b)"/>
                <path fill="#DB3333" d="M200.281 267.89h-14.145V216.2c0-3.904 3.168-7.07 7.075-7.07 3.905 0 7.07 3.166 7.07 7.07v51.69z" mask="url(#nl70gt497b)"/>
                <path fill="#770017" d="M187.843 272.026h10.85c1.645 0 2.977-1.234 2.977-2.753 0-1.521-1.332-2.755-2.976-2.755h-10.85c-1.645 0-2.974 1.234-2.974 2.755 0 1.52 1.33 2.753 2.973 2.753" mask="url(#nl70gt497b)"/>
                <path fill="#DB3333" d="M236.44 274.584h.822c3.676 0 6.66-2.784 6.66-6.216v-95.121c0-3.432-2.984-6.216-6.66-6.216h-.821c-3.68 0-6.663 2.784-6.663 6.216v95.121c0 3.432 2.984 6.216 6.663 6.216" mask="url(#nl70gt497b)"/>
                <path fill="#FFF" d="M230.278 282.636L243.991 282.636 243.991 270.787 230.278 270.787zM213.708 293.117L246.847 293.117 246.847 289.248 213.708 289.248z" mask="url(#nl70gt497b)"/>
                <path fill="#22296B" d="M246.854 283.946v5.304h-33.151c0-4.922 6.254-8.988 14.606-9.972 1.27-.158 2.604-.254 3.939-.254h9.717c2.319 0 4.287 1.62 4.762 3.842.094.35.127.699.127 1.08" mask="url(#nl70gt497b)"/>
                <path fill="#22296B" d="M229.088 279.474c0-2.093 1.695-3.788 3.785-3.788s3.785 1.695 3.785 3.788h-7.57z" mask="url(#nl70gt497b)"/>
                <path fill="#0E0F2D" d="M227.106 289.247h-2.3v-8.904c0-.48.39-.869.87-.869h.56c.48 0 .87.389.87.869v8.904zM222.725 289.247h-2.3v-8.148c0-.48.39-.869.87-.869h.561c.48 0 .869.389.869.869v8.148z" mask="url(#nl70gt497b)"/>
                <path fill="#770017" d="M230.293 225.795h5.16c1.183 0 2.141-.958 2.141-2.141v-8.724c0-1.183-.958-2.139-2.14-2.139h-5.16c-1.184 0-2.142.956-2.142 2.139v8.724c0 1.183.958 2.14 2.141 2.14M231.233 272.026h10.85c1.644 0 2.976-1.234 2.976-2.753 0-1.521-1.332-2.755-2.976-2.755h-10.85c-1.642 0-2.974 1.234-2.974 2.755 0 1.52 1.332 2.753 2.974 2.753M186.627 224.21h5.162c1.183 0 2.14-.957 2.14-2.14v-8.725c0-1.183-.957-2.138-2.14-2.138h-5.162c-1.181 0-2.141.955-2.141 2.138v8.724c0 1.184.96 2.141 2.14 2.141M249.995 169L206.703 166.021 206.703 163.604 249.995 163.604z" mask="url(#nl70gt497b)"/>
                <path fill="#DB3333" d="M206.419 133.985L234.847 133.985 234.847 96.785 206.419 96.785z" mask="url(#nl70gt497b)"/>
                <path fill="#DB3333" d="M253.464 143.584L253.464 163.6 203.186 163.6 203.186 143.584 206.714 129.976 234.962 130.168z" mask="url(#nl70gt497b)"/>
                <path fill="#770017" d="M206.67 97.654c.017.228.11.448.24.628.05.087.11.152.168.216.05.087.135.156.221.204.09.046.151.087.245.108.511.13 1.037-.184 1.164-.698.029-.115.034-.238.017-.365l.005-.024c-.735-8.15.37-12.672 4.814-19.478.024-.094.086-.151.134-.24.063-.055.082-.127.106-.221.137-.557-.194-1.111-.754-1.25-.045-.012-.115-.03-.168-.017-.436-.036-.84.187-1.012.588-.03.017-.041.062-.07.081-4.8 7.236-5.945 11.823-5.11 20.468M233.333 97.654c.02.228.113.448.24.628.053.087.11.152.168.216.053.087.134.156.223.204.087.046.149.087.243.108.513.13 1.036-.184 1.166-.698.026-.115.031-.238.014-.365l.008-.024c-.737-8.15.37-12.672 4.812-19.478.024-.094.086-.151.134-.24.065-.055.082-.127.106-.221.136-.557-.192-1.111-.754-1.25-.046-.012-.113-.03-.168-.017-.437-.036-.838.187-1.013.588-.029.017-.038.062-.07.081-4.797 7.236-5.944 11.823-5.109 20.468" mask="url(#nl70gt497b)"/>
                <path fill="#AA182D" d="M230.077 159.232h7.673v-17.928h-13.046v12.554c0 2.97 2.407 5.374 5.373 5.374" mask="url(#nl70gt497b)"/>
                <path fill="#770017" d="M223.367 141.304c0-.598.485-1.08 1.08-1.08h13.575c.595 0 1.08.482 1.08 1.08 0 .597-.485 1.08-1.08 1.08h-13.575c-.595 0-1.08-.483-1.08-1.08" mask="url(#nl70gt497b)"/>
                <path fill="#7F5040" d="M183.617 105.934l-6.27 14.033c-.049.108-.097.216-.155.305-.004.012-.012.026-.012.026l-2.148 1.514c-.124.024-.242.036-.362.048l-2.803-1.252c-.07-.096-.14-.192-.202-.303l-.307-2.61s.007-.013.012-.027c.029-.101.077-.21.125-.317l6.271-14.03c.725-1.618 2.616-2.34 4.234-1.618.808.36 1.392 1.01 1.69 1.79.29.761.287 1.632-.073 2.441" mask="url(#nl70gt497b)"/>
                <path fill="#CA8F54" d="M177.207 120.276L177.181 120.298 175.033 121.812 174.848 121.94 171.692 120.528 171.663 120.305 171.356 117.694 171.356 117.663z" mask="url(#nl70gt497b)"/>
                <path fill="#3A1B10" d="M167.694 137.777L164.576 136.383 171.668 120.519 174.786 121.911zM164.743 140.198L164.578 136.385 167.693 137.777z" mask="url(#nl70gt497b)"/>
                <path fill="#F2AE75" d="M178.309 107.623c1.046-2.94 4.277-4.474 7.217-3.427l41.152 14.65c2.94 1.043 4.476 4.276 3.428 7.216-1.047 2.938-4.277 4.471-7.217 3.425l-41.153-14.647c-2.94-1.047-4.476-4.277-3.427-7.217" mask="url(#nl70gt497b)"/>
                <path fill="#031933" d="M253.747 85.372c1.138-2.93-.228-6.607-2.93-8.164-2.703-1.558-5.72-.406-6.86 2.524-3.564 9.18-6.588 15.867-10.305 22.236l9.554 6.036c3.826-6.487 6.9-13.262 10.541-22.632" mask="url(#nl70gt497b)"/>
                <path fill="#F2AE75" d="M233.652 101.967c-3.511 6.017-7.644 11.748-13.457 19.013-1.966 2.455-1.447 5.642 1.258 7.2 2.702 1.558 6.566.893 8.532-1.56 5.685-7.104 9.76-12.744 13.221-18.617l-9.554-6.036z" mask="url(#nl70gt497b)"/>
                <path fill="#DD925B" d="M233.652 101.967L243.206 108.003 240.641 112.143 232.305 104.211z" mask="url(#nl70gt497b)"/>
                <path fill="#2A544C" d="M2.211 297.537h339.44c1.219 0 2.21-.99 2.21-2.21 0-1.222-.991-2.211-2.21-2.211H2.21c-1.221 0-2.21.989-2.21 2.21 0 1.222.989 2.21 2.21 2.21M195.816 306.806H374.37c1.222 0 2.21-.989 2.21-2.21 0-1.222-.988-2.21-2.21-2.21H195.816c-1.221 0-2.21.988-2.21 2.21 0 1.221.989 2.21 2.21 2.21M63.357 306.806h120.415c1.222 0 2.21-.989 2.21-2.21 0-1.222-.988-2.21-2.21-2.21H63.357c-1.221 0-2.21.988-2.21 2.21 0 1.221.989 2.21 2.21 2.21" mask="url(#nl70gt497b)"/>
            </g>
        </g>
    </g>
</svg>
